<svg width="24" height="24" viewBox="0 0 24 24" version="1.1" xmlns="http://www.w3.org/2000/svg" xmlns:xlink="http://www.w3.org/1999/xlink">
<title>Frame</title>
<desc>Created using Figma</desc>
<g id="Canvas" transform="translate(245 172)">
<clipPath id="clip-0" clip-rule="evenodd">
<path d="M -245 -172L -221 -172L -221 -148L -245 -148L -245 -172Z" fill="#FFFFFF"/>
</clipPath>
<g id="Frame" clip-path="url(#clip-0)">
<path d="M -245 -172L -221 -172L -221 -148L -245 -148L -245 -172Z" fill="#FFFFFF"/>
<g id="Warning">
<g id="Border">
<mask id="mask0_outline_ins">
<use xlink:href="#path0_fill" fill="white" transform="translate(-243 -170)"/>
</mask>
<g mask="url(#mask0_outline_ins)">
<use xlink:href="#path1_stroke_2x" transform="translate(-243 -170)"/>
</g>
</g>
<g id="Exclamation Point">
<g id="Dot">
<use xlink:href="#path2_fill" transform="translate(-234 -156)"/>
</g>
<g id="Dash">
<use xlink:href="#path3_stroke" transform="translate(-233 -165)"/>
</g>
</g>
</g>
</g>
</g>
<defs>
<path id="path0_fill" d="M 20 10C 20 15.5228 15.5228 20 10 20C 4.47715 20 0 15.5228 0 10C 0 4.47715 4.47715 0 10 0C 15.5228 0 20 4.47715 20 10Z"/>
<path id="path1_stroke_2x" d="M 18 10C 18 14.4183 14.4183 18 10 18L 10 22C 16.6274 22 22 16.6274 22 10L 18 10ZM 10 18C 5.58172 18 2 14.4183 2 10L -2 10C -2 16.6274 3.37258 22 10 22L 10 18ZM 2 10C 2 5.58172 5.58172 2 10 2L 10 -2C 3.37258 -2 -2 3.37258 -2 10L 2 10ZM 10 2C 14.4183 2 18 5.58172 18 10L 22 10C 22 3.37258 16.6274 -2 10 -2L 10 2Z"/>
<path id="path2_fill" d="M 2 1C 2 1.55228 1.55228 2 1 2C 0.447715 2 0 1.55228 0 1C 0 0.447715 0.447715 0 1 0C 1.55228 0 2 0.447715 2 1Z"/>
<path id="path3_stroke" d="M 1 0C 1 -0.552285 0.552285 -1 0 -1C -0.552285 -1 -1 -0.552285 -1 0L 1 0ZM -1 6C -1 6.55228 -0.552285 7 0 7C 0.552285 7 1 6.55228 1 6L -1 6ZM -1 0L -1 6L 1 6L 1 0L -1 0Z"/>
</defs>
</svg>
