<svg viewBox="0 0 24 24" xmlns="http://www.w3.org/2000/svg">
  <g transform="translate(245 172)">
    <mask id="a">
      <path d="M20 10c0 5.5228-4.4772 10-10 10-5.5229 0-10-4.4772-10-10C0 4.4771 4.4771 0 10 0c5.5228 0 10 4.4771 10 10z" fill="#fff" transform="translate(-243 -170)"/>
    </mask>
    <g mask="url(#a)">
      <path d="M-225-160c0 4.4183-3.5817 8-8 8v4c6.6274 0 12-5.3726 12-12h-4zm-8 8c-4.4183 0-8-3.5817-8-8h-4c0 6.6274 5.3726 12 12 12v-4zm-8-8c0-4.4183 3.5817-8 8-8v-4c-6.6274 0-12 5.3726-12 12h4zm8-8c4.4183 0 8 3.5817 8 8h4c0-6.6274-5.3726-12-12-12v4z"/>
    </g>
  </g>
  <path d="M13 17c0 .5523-.4477 1-1 1s-1-.4477-1-1 .4477-1 1-1 1 .4477 1 1zM13 7c0-.5523-.4477-1-1-1s-1 .4477-1 1h2zm-2 6c0 .5523.4477 1 1 1s1-.4477 1-1h-2zm0-6v6h2V7h-2z"/>
</svg>
