<svg viewBox="0 0 21 21" xmlns="http://www.w3.org/2000/svg">
  <path fill="#313440" d="M5.9845 3.8575v.4487l1.3448.6675V3.8575H5.9845zm.7845 11.76v1.6571h-.4585V15.109l.4586-.5936-.0001 1.1021zm.5603-3.5939l-.5603.551h.5603v-.551zm-1.3448 0l-.5603.551h.5603v-.551zm0-5.7733l-.5603.4731v4.8804l.5603-.4731V6.2503zm1.3448 0l-.5603.4731v4.8804l.5603-.4731V6.2503zM8.9895 0l-.769.8323-.2058.2224v1.571H3.7204L.6724 5.8624.65 18.7629l2.0617-1.7413V6.0386l.6947-.7813v12.7021L0 20.6155h3.7427L3.723 4.9015l-.0026-.34v-1.601h5.5257l-.5704.4503v17.2047l1.0086-.7961H20.688l-3.9332-3.9175H9.6843V2.6147l-.0224.0174v-.0065h-.7065l.0342-.0109V.8323h.3808v1.7824h.3139V.8323L8.9896 0z"/>
</svg>
